<svg height="11" viewBox="0 0 17 11" width="17" xmlns="http://www.w3.org/2000/svg"><path d="m6.40413682 5.14092244 6.89709448-6.63247189c.2158408-.20716982.3341854-.48116862.3341854-.77217842 0-.29040227-.1183446-.56440106-.3341854-.77157088-.2207462-.21263765-.5150746-.32928458-.8290248-.32928458-.3145635 0-.6088918.11664693-.8296381.32928458l-8.11855721 7.80683923c-.10240174.09842085-.15942786.23025619-.15942786.36938196 0 .13912578.05702612.27096112.15942786.36938197l8.11855721 7.80683919c.439653.4240603 1.2153309.4246678 1.6586629 0 .2158408-.2071698.3341854-.4811686.3341854-.7715708 0-.2910098-.1183446-.5650086-.3341854-.7721785z" fill="#d95565" fill-rule="evenodd" transform="matrix(0 -1 1 0 3.364583 13.635417)"/></svg>