<?xml version="1.0" encoding="UTF-8"?>
<svg width="798px" height="209px" viewBox="0 0 798 209" version="1.1" xmlns="http://www.w3.org/2000/svg" xmlns:xlink="http://www.w3.org/1999/xlink">
    <!-- Generator: Sketch 51.3 (57544) - http://www.bohemiancoding.com/sketch -->
    <title>logo</title>
    <desc>Created with Sketch.</desc>
    <defs></defs>
    <g id="Page-1" stroke="none" stroke-width="1" fill="none" fill-rule="evenodd">
        <g id="logo" fill="#FFFFFF" fill-rule="nonzero">
            <path d="M130.107909,20.4622939 C129.274629,22.8918276 128.693298,25.4284765 128.393014,28.0447563 C120.695266,25.8915605 112.574164,24.7395833 104.181737,24.7395833 C58.5043382,24.7395833 20.8643876,58.8644823 15.7731979,102.807752 C14.6334705,102.591043 13.4567383,102.477591 12.2532846,102.477591 C10.7477782,102.477591 9.28409036,102.655141 7.88235294,102.990278 C12.9258852,54.665246 54.1159495,16.98125 104.181737,16.98125 C113.161798,16.98125 121.856311,18.1936153 130.107909,20.4622939 Z M188.224716,65.2911249 C196.352833,79.3436396 201,95.6289643 201,112.990625 C201,128.457807 197.311684,143.070733 190.759643,156.011701 C188.841756,154.21668 186.652815,152.7034 184.260122,151.538602 C189.972101,139.891809 193.176302,126.812281 193.176302,112.990625 C193.176302,96.6931089 188.721356,81.4274081 180.953179,68.3256987 C183.498251,67.5383928 185.93153,66.5179588 188.224716,65.2911249 Z M11.0411248,139.291094 C11.4418524,139.316682 11.8460385,139.329674 12.2532846,139.329674 C14.576905,139.329674 16.8009083,138.906726 18.8512773,138.134229 C29.7689534,174.624542 63.8407753,201.241667 104.181737,201.241667 C120.962327,201.241667 136.658167,196.636099 150.053954,188.630113 C151.433314,190.882342 153.145613,192.911856 155.123117,194.651487 C140.325496,203.748175 122.872098,209 104.181737,209 C59.9069908,209 22.5734327,179.529534 11.0411248,139.291094 Z" id="Shape"></path>
            <ellipse id="Oval" cx="104.441176" cy="113.64375" rx="53.205882" ry="52.25"></ellipse>
            <g id="Group">
                <ellipse id="Oval" cx="12.480392" cy="120.828125" rx="12.480392" ry="12.409375"></ellipse>
                <ellipse id="Oval" cx="170.784314" cy="173.73125" rx="19.705882" ry="19.59375"></ellipse>
                <ellipse id="Oval" cx="168.156863" cy="32.65625" rx="32.843137" ry="32.65625"></ellipse>
            </g>
            <path d="M323.088565,106.77832 L353.901553,106.77832 L354.106631,120.672363 C354.106631,130.789601 352.201133,137.309312 348.390079,140.231689 C344.579024,143.154067 336.076912,144.615234 322.883487,144.615234 C310.783817,144.615234 302.76876,142.667012 298.838077,138.770508 C294.907393,134.874004 292.942081,126.927306 292.942081,114.930176 C292.942081,99.6175992 293.728206,89.9448444 295.300479,85.9116211 C297.248731,80.9897215 300.205244,77.674325 304.170108,75.965332 C308.134972,74.2563391 314.868303,73.4018555 324.370303,73.4018555 C336.811772,73.4018555 344.843918,74.7263051 348.466983,77.3752441 C352.090048,80.0241832 353.901553,85.8944858 353.901553,94.9863281 L340.468936,94.9863281 C340.229677,90.4062271 339.229931,87.5607966 337.469669,86.4499512 C335.709406,85.3391058 331.291725,84.7836914 324.216495,84.7836914 C316.526027,84.7836914 311.646925,85.7407131 309.579044,87.6547852 C307.511162,89.5688572 306.477237,94.0634412 306.477237,101.138672 L306.425967,108.162598 L306.528506,117.134766 C306.528506,124.073277 307.553887,128.490957 309.604678,130.387939 C311.65547,132.284922 316.406399,133.233398 323.857608,133.233398 C331.103738,133.233398 335.709405,132.430184 337.674747,130.82373 C339.640088,129.217277 340.622745,125.42337 340.622745,119.441895 L340.674014,116.570801 L323.088565,116.570801 L323.088565,106.77832 Z M379.479346,144 L379.479346,74.0170898 L413.983741,74.0170898 C422.562885,74.0170898 428.475912,75.5038914 431.722998,78.4775391 C434.970085,81.4511867 436.593604,86.8344337 436.593604,94.6274414 C436.593604,101.702672 435.781844,106.53905 434.158301,109.136719 C432.534758,111.734388 429.210817,113.528804 424.186377,114.52002 L424.186377,114.981445 C431.945205,115.459963 435.824561,119.988727 435.824561,128.567871 L435.824561,144 L422.545752,144 L422.545752,131.233887 C422.545752,124.021937 418.9911,120.416016 411.88169,120.416016 L392.758155,120.416016 L392.758155,144 L379.479346,144 Z M392.758155,109.239258 L411.83042,109.239258 C416.376341,109.239258 419.392669,108.427498 420.879493,106.803955 C422.366316,105.180412 423.109717,101.924829 423.109717,97.0371094 C423.109717,92.04685 422.468854,88.8254467 421.18711,87.3728027 C419.905365,85.9201588 417.094114,85.1938477 412.753272,85.1938477 L392.758155,85.1938477 L392.758155,109.239258 Z M505.54542,130.567383 L475.347666,130.567383 L470.989756,144 L456.941905,144 L480.218272,74.0170898 L500.162119,74.0170898 L523.797373,144 L510.005869,144 L505.54542,130.567383 Z M502.469248,120.774902 L490.369639,84.3222656 L478.475108,120.774902 L502.469248,120.774902 Z M590.698408,74.0170898 L604.74626,74.0170898 L582.187666,144 L561.782393,144 L539.428877,74.0170898 L553.220381,74.0170898 L566.345381,113.648438 C567.575856,117.442402 569.404451,123.79976 571.831221,132.720703 L572.190108,132.720703 L573.523115,127.952637 C575.163749,122.005341 576.565102,117.254412 577.727217,113.699707 L590.698408,74.0170898 Z M639.860185,74.0170898 L639.860185,144 L626.581377,144 L626.581377,74.0170898 L639.860185,74.0170898 Z M696.199697,85.9116211 L696.199697,144 L682.920888,144 L682.920888,85.9116211 L662.720693,85.9116211 L662.720693,74.0170898 L717.117666,74.0170898 L717.117666,85.9116211 L696.199697,85.9116211 Z M797.861474,74.0170898 L771.919091,117.288574 L771.919091,144 L758.640283,144 L758.640283,117.288574 L733.415673,74.0170898 L748.796533,74.0170898 L759.358056,92.4741211 C759.939114,93.4995168 760.930315,95.3964705 762.331689,98.1650391 L763.818505,100.984863 L765.254052,103.804688 L765.612939,103.804688 L768.586572,98.1650391 C769.851227,95.6357295 770.859517,93.7387759 771.611474,92.4741211 L782.275537,74.0170898 L797.861474,74.0170898 Z" id="Shape"></path>
        </g>
    </g>
</svg>